<?xml version="1.0" encoding="UTF-8"?>
<svg xmlns="http://www.w3.org/2000/svg" viewBox="0 0 750 500">
  <defs>
    <style>
      .uuid-6cc761d6-300d-4e43-9c59-a39a4b40988b {
        fill: #df6e1c;
      }

      .uuid-6cc761d6-300d-4e43-9c59-a39a4b40988b, .uuid-4363c72f-fca1-433a-a4b3-5f8b269a4498, .uuid-9bd4ba75-8e36-4735-b300-47e9a614c71c, .uuid-af2ab723-1d77-42b5-9a91-7a5234a600c5, .uuid-9c7eac7b-800c-4141-bcf0-52ecfe54f999, .uuid-09ca0ee9-e731-48ba-84fe-74ea4a209348, .uuid-d95a9c60-49f1-49f0-8a12-fd0c4e793d60, .uuid-48056b56-7c07-4fe1-9a3c-a1069cd226b7, .uuid-c77b7abd-caee-4cf6-a116-a2cfa60e07d2, .uuid-458f507c-5ea2-46c4-8f16-8bd1dc5dac34, .uuid-bf82f858-1692-4479-aa0b-b2955fd0c5f2, .uuid-622231ab-4b6b-46f3-9b98-fcee6c7fbb64, .uuid-87b99c57-5942-4252-8ee9-db70793b1b71, .uuid-e22ac912-d352-4d42-af82-1540e4a5c72f, .uuid-ca73f43d-9138-4162-aedb-b2794f7cd33c {
        stroke-width: 0px;
      }

      .uuid-4363c72f-fca1-433a-a4b3-5f8b269a4498, .uuid-9c7eac7b-800c-4141-bcf0-52ecfe54f999 {
        fill: #b03a36;
      }

      .uuid-9bd4ba75-8e36-4735-b300-47e9a614c71c {
        fill: #b8c13e;
      }

      .uuid-af2ab723-1d77-42b5-9a91-7a5234a600c5 {
        fill: #000;
      }

      .uuid-bb38b962-0b35-43fc-9edf-536ceb23a100, .uuid-df051dd0-9679-4f30-8e34-a536e9cfeec0, .uuid-ff6637fa-47f5-47d3-96f7-d561d79b1012, .uuid-10b8473e-b286-4d08-bb87-6b177601fff1, .uuid-05827295-fbeb-4ae6-a3a0-4c4707cec5bd, .uuid-3967793d-9291-466d-a62f-6b33659af340, .uuid-c7976dea-93f8-42cb-a3ea-9b689bf8bee3, .uuid-e6a0e0b0-cca7-4cf6-a2d2-f56fb467da86, .uuid-7201074d-a59c-435b-97ba-9f820cafdc0f, .uuid-44df7f38-5502-46b9-a24b-ab9818d9f04b, .uuid-e824fa4d-7005-4acc-bcc8-c094b7d1d12b, .uuid-f60e3c76-c9d1-4b5c-a71e-492323631048 {
        stroke-miterlimit: 10;
      }

      .uuid-bb38b962-0b35-43fc-9edf-536ceb23a100, .uuid-09ca0ee9-e731-48ba-84fe-74ea4a209348, .uuid-05827295-fbeb-4ae6-a3a0-4c4707cec5bd, .uuid-87b99c57-5942-4252-8ee9-db70793b1b71, .uuid-490fc740-f193-4052-9dcb-29a2693d13b6, .uuid-e22ac912-d352-4d42-af82-1540e4a5c72f, .uuid-6474f6ac-b818-42fe-9686-e0873bb15475, .uuid-e824fa4d-7005-4acc-bcc8-c094b7d1d12b {
        fill: #fff;
      }

      .uuid-bb38b962-0b35-43fc-9edf-536ceb23a100, .uuid-ff6637fa-47f5-47d3-96f7-d561d79b1012, .uuid-10b8473e-b286-4d08-bb87-6b177601fff1, .uuid-55904146-ec5f-493a-b2fc-0a0b1d4d7be3, .uuid-05827295-fbeb-4ae6-a3a0-4c4707cec5bd, .uuid-3967793d-9291-466d-a62f-6b33659af340, .uuid-586b01e0-1fd5-4d96-9e70-96f4df125399, .uuid-490fc740-f193-4052-9dcb-29a2693d13b6, .uuid-6de68f78-e734-4595-b651-8510b8514ee0, .uuid-7fe77470-29ad-48ca-b73c-96c2d8026ddd {
        stroke: #000;
      }

      .uuid-9c7eac7b-800c-4141-bcf0-52ecfe54f999, .uuid-c77b7abd-caee-4cf6-a116-a2cfa60e07d2, .uuid-ca73f43d-9138-4162-aedb-b2794f7cd33c {
        mix-blend-mode: multiply;
      }

      .uuid-df051dd0-9679-4f30-8e34-a536e9cfeec0, .uuid-ff6637fa-47f5-47d3-96f7-d561d79b1012, .uuid-10b8473e-b286-4d08-bb87-6b177601fff1, .uuid-55904146-ec5f-493a-b2fc-0a0b1d4d7be3, .uuid-57256959-0777-40fd-b6af-642306a111a9, .uuid-3967793d-9291-466d-a62f-6b33659af340, .uuid-076b223f-2ff5-496f-aaca-1ec3ae8f6d41, .uuid-c7976dea-93f8-42cb-a3ea-9b689bf8bee3, .uuid-586b01e0-1fd5-4d96-9e70-96f4df125399, .uuid-e6a0e0b0-cca7-4cf6-a2d2-f56fb467da86, .uuid-7201074d-a59c-435b-97ba-9f820cafdc0f, .uuid-7fe77470-29ad-48ca-b73c-96c2d8026ddd, .uuid-44df7f38-5502-46b9-a24b-ab9818d9f04b, .uuid-f60e3c76-c9d1-4b5c-a71e-492323631048 {
        fill: none;
      }

      .uuid-df051dd0-9679-4f30-8e34-a536e9cfeec0, .uuid-05827295-fbeb-4ae6-a3a0-4c4707cec5bd, .uuid-076b223f-2ff5-496f-aaca-1ec3ae8f6d41, .uuid-e6a0e0b0-cca7-4cf6-a2d2-f56fb467da86, .uuid-6de68f78-e734-4595-b651-8510b8514ee0, .uuid-7fe77470-29ad-48ca-b73c-96c2d8026ddd, .uuid-6474f6ac-b818-42fe-9686-e0873bb15475, .uuid-44df7f38-5502-46b9-a24b-ab9818d9f04b {
        stroke-width: .5px;
      }

      .uuid-df051dd0-9679-4f30-8e34-a536e9cfeec0, .uuid-f60e3c76-c9d1-4b5c-a71e-492323631048 {
        stroke: #372ee2;
      }

      .uuid-09ca0ee9-e731-48ba-84fe-74ea4a209348 {
        opacity: .3;
      }

      .uuid-ff6637fa-47f5-47d3-96f7-d561d79b1012, .uuid-55904146-ec5f-493a-b2fc-0a0b1d4d7be3, .uuid-57256959-0777-40fd-b6af-642306a111a9, .uuid-3967793d-9291-466d-a62f-6b33659af340, .uuid-076b223f-2ff5-496f-aaca-1ec3ae8f6d41, .uuid-586b01e0-1fd5-4d96-9e70-96f4df125399, .uuid-e6a0e0b0-cca7-4cf6-a2d2-f56fb467da86, .uuid-490fc740-f193-4052-9dcb-29a2693d13b6, .uuid-6de68f78-e734-4595-b651-8510b8514ee0, .uuid-7fe77470-29ad-48ca-b73c-96c2d8026ddd, .uuid-6474f6ac-b818-42fe-9686-e0873bb15475 {
        stroke-linecap: round;
      }

      .uuid-d95a9c60-49f1-49f0-8a12-fd0c4e793d60 {
        fill: #873000;
      }

      .uuid-b3b6b602-7f67-46d9-a74c-c5832f79157f {
        isolation: isolate;
      }

      .uuid-48056b56-7c07-4fe1-9a3c-a1069cd226b7 {
        fill: #f9b741;
      }

      .uuid-55904146-ec5f-493a-b2fc-0a0b1d4d7be3 {
        stroke-width: .5px;
      }

      .uuid-55904146-ec5f-493a-b2fc-0a0b1d4d7be3, .uuid-57256959-0777-40fd-b6af-642306a111a9, .uuid-076b223f-2ff5-496f-aaca-1ec3ae8f6d41, .uuid-586b01e0-1fd5-4d96-9e70-96f4df125399, .uuid-490fc740-f193-4052-9dcb-29a2693d13b6, .uuid-6de68f78-e734-4595-b651-8510b8514ee0, .uuid-7fe77470-29ad-48ca-b73c-96c2d8026ddd, .uuid-6474f6ac-b818-42fe-9686-e0873bb15475 {
        stroke-linejoin: round;
      }

      .uuid-57256959-0777-40fd-b6af-642306a111a9 {
        stroke-width: .5px;
      }

      .uuid-57256959-0777-40fd-b6af-642306a111a9, .uuid-076b223f-2ff5-496f-aaca-1ec3ae8f6d41, .uuid-e6a0e0b0-cca7-4cf6-a2d2-f56fb467da86, .uuid-7201074d-a59c-435b-97ba-9f820cafdc0f, .uuid-6474f6ac-b818-42fe-9686-e0873bb15475, .uuid-44df7f38-5502-46b9-a24b-ab9818d9f04b, .uuid-e824fa4d-7005-4acc-bcc8-c094b7d1d12b {
        stroke: #06000f;
      }

      .uuid-c77b7abd-caee-4cf6-a116-a2cfa60e07d2 {
        opacity: .7;
      }

      .uuid-c77b7abd-caee-4cf6-a116-a2cfa60e07d2, .uuid-622231ab-4b6b-46f3-9b98-fcee6c7fbb64 {
        fill: #d97969;
      }

      .uuid-3967793d-9291-466d-a62f-6b33659af340 {
        stroke-width: .9px;
      }

      .uuid-458f507c-5ea2-46c4-8f16-8bd1dc5dac34, .uuid-ca73f43d-9138-4162-aedb-b2794f7cd33c {
        fill: #ffc6a6;
      }

      .uuid-bf82f858-1692-4479-aa0b-b2955fd0c5f2 {
        fill: #06000f;
      }

      .uuid-c7976dea-93f8-42cb-a3ea-9b689bf8bee3 {
        stroke: #b0c7ff;
        stroke-width: 5px;
      }

      .uuid-87b99c57-5942-4252-8ee9-db70793b1b71 {
        opacity: .2;
      }

      .uuid-7201074d-a59c-435b-97ba-9f820cafdc0f {
        stroke-width: .5px;
      }

      .uuid-6de68f78-e734-4595-b651-8510b8514ee0 {
        fill: #3cbc00;
      }

      .uuid-f60e3c76-c9d1-4b5c-a71e-492323631048 {
        stroke-width: 2px;
      }
    </style>
  </defs>
  <g class="uuid-b3b6b602-7f67-46d9-a74c-c5832f79157f">
    <g id="uuid-dada3f9b-7242-47e1-9c74-f2e03a318cc2" data-name="OBJECTS">
      <g>
        <path class="uuid-9bd4ba75-8e36-4735-b300-47e9a614c71c" d="M169.6,119.2s40,4.4,34.8-30.9c11.5,9.5,44.5,6.5,39.7-23.1,3.3,5.6,15,3,11-6.7,3,5.1,52,17.9,52.9-16.9h-138.2v77.5Z"/>
        <polygon class="uuid-87b99c57-5942-4252-8ee9-db70793b1b71" points="181.3 41.7 299.7 160.1 169.6 160.1 169.6 41.7 181.3 41.7"/>
        <polygon class="uuid-87b99c57-5942-4252-8ee9-db70793b1b71" points="371.7 160.1 350.3 160.1 231.9 41.7 253.3 41.7 371.7 160.1"/>
        <polygon class="uuid-87b99c57-5942-4252-8ee9-db70793b1b71" points="438.4 41.7 438.4 160.1 389 160.1 270.6 41.7 438.4 41.7"/>
        <path class="uuid-af2ab723-1d77-42b5-9a91-7a5234a600c5" d="M169.5,79l36.8-16.8,28.7-4.3-.3-2.8-30,1.5-18,3.8,10.9-8.2-1.1-2.5s-15.2,6.8-26.9,11.9"/>
        <rect class="uuid-c7976dea-93f8-42cb-a3ea-9b689bf8bee3" x="169.6" y="41.7" width="268.8" height="118.4"/>
        <line class="uuid-c7976dea-93f8-42cb-a3ea-9b689bf8bee3" x1="266.9" y1="41.7" x2="266.9" y2="160.1"/>
      </g>
      <g>
        <g>
          <rect class="uuid-af2ab723-1d77-42b5-9a91-7a5234a600c5" x="176.9" y="261.3" width="330.9" height="12.4"/>
          <line class="uuid-e824fa4d-7005-4acc-bcc8-c094b7d1d12b" x1="187.3" y1="306.9" x2="497.3" y2="306.9"/>
          <g>
            <line class="uuid-bb38b962-0b35-43fc-9edf-536ceb23a100" x1="192.3" y1="267.5" x2="169.6" y2="445.3"/>
            <line class="uuid-bb38b962-0b35-43fc-9edf-536ceb23a100" x1="492.4" y1="267.5" x2="515.1" y2="445.3"/>
          </g>
        </g>
        <g>
          <rect class="uuid-4363c72f-fca1-433a-a4b3-5f8b269a4498" x="357.3" y="316.7" width="74.3" height="9.9"/>
          <rect class="uuid-9c7eac7b-800c-4141-bcf0-52ecfe54f999" x="357.3" y="324.1" width="74.3" height="2.6"/>
          <path class="uuid-10b8473e-b286-4d08-bb87-6b177601fff1" d="M394.5,326.8v96.5s-2.7,8.4-22.1,8.4-22.8,1.4-22.8,13.5"/>
          <path class="uuid-10b8473e-b286-4d08-bb87-6b177601fff1" d="M394.5,423.3s2.7,8.4,22.1,8.4,22.8,1.4,22.8,13.5"/>
          <rect class="uuid-af2ab723-1d77-42b5-9a91-7a5234a600c5" x="392.3" y="326.6" width="4.3" height="52.9"/>
          <path class="uuid-586b01e0-1fd5-4d96-9e70-96f4df125399" d="M394.5,329.7h8.6c1.9,0,3.6,1.2,4.2,3,1.4,4.2,6,11.2,20.5,11.2"/>
          <path class="uuid-af2ab723-1d77-42b5-9a91-7a5234a600c5" d="M429.4,346.1h-2.5c-1.2,0-2.2-1-2.2-2.2h0c0-1.2,1-2.2,2.2-2.2h2.5c1.2,0,2.2,1,2.2,2.2h0c0,1.2-1,2.2-2.2,2.2Z"/>
        </g>
        <g>
          <rect class="uuid-4363c72f-fca1-433a-a4b3-5f8b269a4498" x="570.1" y="316.7" width="74.3" height="9.9"/>
          <rect class="uuid-9c7eac7b-800c-4141-bcf0-52ecfe54f999" x="570.1" y="324.1" width="74.3" height="2.6"/>
          <path class="uuid-10b8473e-b286-4d08-bb87-6b177601fff1" d="M607.2,326.8v96.5s-2.7,8.4-22.1,8.4-22.8,1.4-22.8,13.5"/>
          <path class="uuid-10b8473e-b286-4d08-bb87-6b177601fff1" d="M607.2,423.3s2.7,8.4,22.1,8.4,22.8,1.4,22.8,13.5"/>
          <rect class="uuid-af2ab723-1d77-42b5-9a91-7a5234a600c5" x="605" y="326.6" width="4.3" height="52.9"/>
          <path class="uuid-586b01e0-1fd5-4d96-9e70-96f4df125399" d="M607.2,329.7h8.6c1.9,0,3.6,1.2,4.2,3,1.4,4.2,6,11.2,20.5,11.2"/>
          <path class="uuid-af2ab723-1d77-42b5-9a91-7a5234a600c5" d="M642.1,346.1h-2.5c-1.2,0-2.2-1-2.2-2.2h0c0-1.2,1-2.2,2.2-2.2h2.5c1.2,0,2.2,1,2.2,2.2h0c0,1.2-1,2.2-2.2,2.2Z"/>
        </g>
      </g>
      <g>
        <g>
          <path class="uuid-af2ab723-1d77-42b5-9a91-7a5234a600c5" d="M535.1,91.9s-3.1,3.3-3,7c0,3.7,5.2,5,5.2,5l.7-10.6"/>
          <path class="uuid-458f507c-5ea2-46c4-8f16-8bd1dc5dac34" d="M586.8,375.2l25.1,20s11.4-3.9,15.8-14.9l-16.5-20.4"/>
          <path class="uuid-458f507c-5ea2-46c4-8f16-8bd1dc5dac34" d="M507.3,112.2c-5.4-10.9-23.6-41.7-23.6-41.7,0,0,2.1-3.6,2.7-7.1.3-1.8.3-4.2,1.6-6.4,2-3.5,2.8-5.6.4-6.1-3.1-.6-6.6,5.9-6.6,5.9,0,0-.5-11.5-.4-16.7,0-5-3.4-3.9-4-.9-.8,3.8-.7,12.8-.7,12.8,0,0-.6-10.1-.5-15.2,0-4.3-3.5-2.9-3.8-.4-.7,5.1,0,15.9,0,15.9,0,0-1.3-11.1-1.3-14.6s-4-2.8-4.2,0c-.4,4.5.3,14.8.3,14.8,0,0-1.9-7.9-2.9-11.3-.7-2.5-3.6-2.3-3.6,0,.1,5.1,2.7,19.5,4.7,25.1,2,5.6,3,6,4.6,7.7,9,42.2,17.1,54,17.1,54,0,0,3.4,4.5,18.1,20.9,10.7-10,19.8-18.2,19.8-18.2l-17.7-18.8Z"/>
          <path class="uuid-d95a9c60-49f1-49f0-8a12-fd0c4e793d60" d="M531.8,239.6s-8.3,41.2-12.5,73.3c-.5,4-.7,7.1,3.4,11.2l65.5,59.3c10.6-4.8,20.2-11.3,26.6-22.2,0,0-19.8-31.8-51.3-50.2l14.7-87.3-46.4,15.9Z"/>
          <polygon class="uuid-af2ab723-1d77-42b5-9a91-7a5234a600c5" points="573.9 370.5 540.2 340 560.5 329.7 573.9 370.5"/>
          <path class="uuid-af2ab723-1d77-42b5-9a91-7a5234a600c5" d="M547.2,346.4l-22.6-20.4,18.5-59.6-3-7.7,4.8,2.7s1.4,60.7,2.1,85.1Z"/>
          <path class="uuid-458f507c-5ea2-46c4-8f16-8bd1dc5dac34" d="M521.2,395.2l-5.4,25.1s14.8,8.3,26.1,4.8l7.8-27.5"/>
          <path class="uuid-d95a9c60-49f1-49f0-8a12-fd0c4e793d60" d="M586.8,223.6s9.9,12.7,9.4,26.9c-.5,14.2-10.4,22.9-10.4,22.9l-17.1,49.9c3.3,11-7.8,52.8-16.6,83.7-10.1,1.9-22.8-1.4-34-6.4l32.6-169.2,36-8Z"/>
          <path class="uuid-af2ab723-1d77-42b5-9a91-7a5234a600c5" d="M561.6,227.4s.3,9.5,18.4,16.6v5.3s-13-2.5-21.1-15.6"/>
          <path class="uuid-55904146-ec5f-493a-b2fc-0a0b1d4d7be3" d="M576.4,224.2s4.2,10.2,3.5,25c-.4,9-19.3,69.2-19.3,69.2,0,0,1.4,1.9,0,8.4-1.4,6.5-17.4,76.2-17.4,76.2"/>
          <path class="uuid-48056b56-7c07-4fe1-9a3c-a1069cd226b7" d="M582.8,202.6c3.2,3.9,7.7,15.6,4.1,21-15.4,8.6-34.2,13.4-55.1,16-4.1-.8-5.4-2.1-4.8-12.1-.1-6-16-64-16-64l-20.5-21.8,24.4-22.5,16.8,17.5,7.1,1,47.6,9.9s-3.2,45.9-3.6,55Z"/>
          <path class="uuid-af2ab723-1d77-42b5-9a91-7a5234a600c5" d="M570.5,175.5l-3.7,24.9,10.7,1.9s0-27.1-7.1-26.8Z"/>
          <path class="uuid-458f507c-5ea2-46c4-8f16-8bd1dc5dac34" d="M563.7,120.7c5.6-11.2,6.9-23.3-2.2-28.2-10.6-5.8-22.9-6.3-25.1,2.4-1.6,6.2-4.8,25.3-1.9,31.3,1.1,2.1,3,3.6,5.5,4.3l-1,7.1,8.4,6.9,14.3-2.2-2-16.7c1.6-1.4,3-3.1,3.9-5Z"/>
          <path class="uuid-ca73f43d-9138-4162-aedb-b2794f7cd33c" d="M540,130.6s7.7,1.3,13.9-2.9c0,0-2.1,7.1-14.6,8l.7-5.1Z"/>
          <path class="uuid-d95a9c60-49f1-49f0-8a12-fd0c4e793d60" d="M511.1,405.1s7.9-.8,19.1,6.5c-.1,2.4-.8,7.4-2.2,10.1l14.7.5s4.8,9.6,3,23.7h-66.4s-5.3-24.8,24.1-22.5l6.1-2.9s2.3-8.7,1.6-15.4Z"/>
          <path class="uuid-af2ab723-1d77-42b5-9a91-7a5234a600c5" d="M546.1,440.6c1.1.5,1.4,3.4,1.1,5.2h-69.2s-.7-3.3,1-5.2h67.2Z"/>
          <path class="uuid-d95a9c60-49f1-49f0-8a12-fd0c4e793d60" d="M618.5,369l-7.5,17.5s-5.5-2.4-9.3-1.5c0,0-2.4,4.6-3.9,8.6,0,0,5.2,0,12.3.4l7.8,9.8s-4,29.8,26.2,22.6l-5.7-60.4s-9.8-1.9-19.9,3Z"/>
          <path class="uuid-af2ab723-1d77-42b5-9a91-7a5234a600c5" d="M644.1,426.5c-1.7.4-3.4.7-4.9.9l-5.8-61.6c3.1,0,5,.4,5,.4l5.7,60.4Z"/>
          <g>
            <rect class="uuid-6cc761d6-300d-4e43-9c59-a39a4b40988b" x="522.6" y="185.4" width="56.8" height="71.5" transform="translate(-20.9 380.7) rotate(-37.5)"/>
            <path class="uuid-af2ab723-1d77-42b5-9a91-7a5234a600c5" d="M532.5,186c-2.4-1.6-5.7-1.5-8.1.3-2.4,1.9-3.3,5-2.4,7.7l-7.3,5.6,4.2,5.5,25.1-19.2-4.2-5.5-7.3,5.6Z"/>
          </g>
          <path class="uuid-458f507c-5ea2-46c4-8f16-8bd1dc5dac34" d="M599.8,186.1l-24.2,2.2.8,9.8-31.6,18c-2.9-.4-7.9-1-9.8-1.1-2.6-.1-7.9,3.2-10.1,3.7-2.2.5-1.9,3.5.8,4,2.7.5,7.2-.9,7.2-.9,0,0-4.2,2-4.7,2.1-2.5.5-7.3,1.2-8.5,1.8-1.7.9-.5,3.5,1,3.6.2,0,.3,0,.5,0-.4.3-.6.7-.7,1.1-.1,1,.9,2.1,2.8,2.1.1,0,.2,0,.4,0-.1.1-.3.3-.3.4-.3.7.3,2.2,1.6,2.3.3,0,1.2,0,2.3,0,.1.7.7,1.5,1.6,1.6.6,0,5.4,0,6.2,0,.7,0,5.7-2.2,6.3-2.5,2.9-1.8,5.5-3.6,7.1-5.5h0c12.3-2.8,45.5-12.6,50.1-17.3,3.1-3.2,1-25.4,1-25.4Z"/>
          <line class="uuid-7fe77470-29ad-48ca-b73c-96c2d8026ddd" x1="577.2" y1="197.7" x2="586.3" y2="192.4"/>
          <path class="uuid-48056b56-7c07-4fe1-9a3c-a1069cd226b7" d="M586.4,147.6s6.7,1.6,9.4,11.3c2.6,9.1,5.6,28.6,5.6,28.6l-30,2.8s-1.5-17.7-1.2-31.7c.2-7.1,8.3-11.6,16.2-10.9Z"/>
          <path class="uuid-af2ab723-1d77-42b5-9a91-7a5234a600c5" d="M536,94.8s-6.3-8.1-3.8-13.7c2.5-5.6,9.3,2.1,11.6,2,2.3-.2,4.2-9.4,12.4-8.7,8.1.6,12.2,14.7,13.2,15.7,1,.9,4.3-3.7,6,2.6s-8.5,29.9-15.9,35.1c-6.5,4.6-25.7,8-26-6,0,0,.5,0,1.7-2,1.7-2.8,3.9-5.9,10-4.1,4.1,1.1,5.4,6.6,9.8,6.7,6.9.2,7.7-14.9,7.7-14.9,0,0-5.4-.2-5.4-4.4,0-3.7.6-4.8.6-4.8,0,0-10.2,2.4-21.9-3.4Z"/>
          <path class="uuid-458f507c-5ea2-46c4-8f16-8bd1dc5dac34" d="M563.5,115.7s1.5-7.2,2.2-7.6c2.3-1.5,9.2-.6,7.8,5.7-1.4,6.3-11.5,10.3-10,1.9Z"/>
          <path class="uuid-7fe77470-29ad-48ca-b73c-96c2d8026ddd" d="M527.8,235s5.1-.1,6.8-.5c1.8-.4,5.1-2.3,5.1-2.3"/>
          <path class="uuid-7fe77470-29ad-48ca-b73c-96c2d8026ddd" d="M524.5,232.2s7-.4,8.5-.8c1.5-.4,5.3-2.2,5.3-2.2"/>
          <path class="uuid-7fe77470-29ad-48ca-b73c-96c2d8026ddd" d="M521.8,229.2s8.2-.9,9.6-1.2,5.2-2.4,5.2-2.4"/>
          <path class="uuid-af2ab723-1d77-42b5-9a91-7a5234a600c5" d="M544.8,428.3c-29.3-2.7-40,12.4-40,12.4h4.6c5.5-6.5,15.7-8.9,23.9-9.8-8.2,3.9-10.7,10.9-10.7,10.9h3.3c6.6-10,14.8-11.2,18-11.3.9,0,1.4,0,1.4,0,.6-1.6-.5-2.2-.5-2.2Z"/>
          <path class="uuid-af2ab723-1d77-42b5-9a91-7a5234a600c5" d="M623.8,367c.2,29.4,16.2,38.6,16.2,38.6l-.5-4.5c-7-4.8-10.5-14.8-12.1-22.8,4.7,7.7,11.9,9.6,11.9,9.6l-.3-3.2c-10.6-5.6-12.6-13.6-13-16.8,0-.9,0-1.3,0-1.3-1.6-.4-2.2.6-2.2.6Z"/>
          <g>
            <path class="uuid-6474f6ac-b818-42fe-9686-e0873bb15475" d="M546.6,146.6s-2.3,12.9-3.4,23.2"/>
            <path class="uuid-bf82f858-1692-4479-aa0b-b2955fd0c5f2" d="M549.3,164c-.1,1.1-.9,2-1.8,1.9-.9,0-1.4-1.1-1.3-2.2s.9-2,1.8-1.9,1.4,1.1,1.3,2.2Z"/>
            <path class="uuid-bf82f858-1692-4479-aa0b-b2955fd0c5f2" d="M551,152.7c-.2,1.1-1,1.9-1.9,1.8-.8-.1-1.4-1.2-1.2-2.3.2-1.1,1-1.9,1.9-1.8.8.1,1.4,1.2,1.2,2.3Z"/>
          </g>
        </g>
        <g>
          <path class="uuid-bb38b962-0b35-43fc-9edf-536ceb23a100" d="M601,144.1l7-12.9c-2.2-3.3-3.4-7.4-3-11.7.7-8.7,7.8-15.7,16.5-16.4,11.2-.9,20.4,8.3,19.5,19.5-.7,8.8-7.9,15.9-16.7,16.6-3.9.3-7.5-.6-10.5-2.4l-11.8,8.4c-.6.5-1.5-.3-1.1-1Z"/>
          <path class="uuid-9bd4ba75-8e36-4735-b300-47e9a614c71c" d="M608.1,115s10.7,4.7,15.4,16.7c0,0,6-17.2,22.7-28.7l-7.3-6.4s-11.2,10.3-15.7,26.6c0,0-6.2-9-15.1-8.1Z"/>
        </g>
      </g>
      <g>
        <g>
          <polyline class="uuid-e22ac912-d352-4d42-af82-1540e4a5c72f" points="388.7 229.6 405.2 261.3 424.7 261.3 408.1 229.6"/>
          <polyline class="uuid-bf82f858-1692-4479-aa0b-b2955fd0c5f2" points="385 229.6 401.6 261.3 421.1 261.3 404.5 229.6"/>
          <path class="uuid-e22ac912-d352-4d42-af82-1540e4a5c72f" d="M416.4,209.1c.6.8.8,1.8.5,2.8l-15.8,45.7c-.8,2.3-2.9,3.8-5.4,3.8h-68.4c-2,0-3.5-2-2.8-3.9l17.4-50.1c.8-2.3,2.9-3.8,5.4-3.8h60.6l5.2,1.4,3.4,4.2Z"/>
          <g>
            <path class="uuid-e22ac912-d352-4d42-af82-1540e4a5c72f" d="M322.2,260.8c-.8,0-1.5-.4-2-1-.5-.7-.6-1.5-.3-2.2l17.4-50.1c.7-2.1,2.7-3.5,4.9-3.5h68.4c.8,0,1.5.4,2,1,.5.7.6,1.5.3,2.2l-17.4,50.1c-.7,2.1-2.7,3.5-4.9,3.5h-68.4Z"/>
            <path class="uuid-bf82f858-1692-4479-aa0b-b2955fd0c5f2" d="M410.5,204.5c.6,0,1.2.3,1.6.8.4.5.5,1.2.3,1.8l-17.4,50.1c-.7,1.9-2.4,3.1-4.4,3.1h-68.4c-.6,0-1.2-.3-1.6-.8-.4-.5-.5-1.2-.3-1.8l17.4-50.1c.7-1.9,2.4-3.1,4.4-3.1h68.4M410.5,203.5h-68.4c-2.4,0-4.6,1.5-5.4,3.8l-17.4,50.1c-.7,1.9.8,3.9,2.8,3.9h68.4c2.4,0,4.6-1.5,5.4-3.8l17.4-50.1c.7-1.9-.8-3.9-2.8-3.9h0Z"/>
          </g>
          <path class="uuid-09ca0ee9-e731-48ba-84fe-74ea4a209348" d="M324.1,258.3c-1,0-1.6-.9-1.3-1.8l16.8-48.2c.4-1.1,1.4-1.8,2.5-1.8h66.7c.8,0,1.4.8,1.2,1.6l-16.8,48.4c-.4,1.1-1.4,1.8-2.5,1.8h-66.4Z"/>
          <g>
            <polygon class="uuid-e22ac912-d352-4d42-af82-1540e4a5c72f" points="343.9 232.4 336 255.2 328.6 255.2 336.5 232.4 343.9 232.4"/>
            <polygon class="uuid-e22ac912-d352-4d42-af82-1540e4a5c72f" points="358.8 226.9 349 255.2 341.6 255.2 351.4 226.9 358.8 226.9"/>
            <polygon class="uuid-e22ac912-d352-4d42-af82-1540e4a5c72f" points="373.6 221.7 362 255.2 354.6 255.2 366.2 221.7 373.6 221.7"/>
            <polygon class="uuid-e22ac912-d352-4d42-af82-1540e4a5c72f" points="382.5 233.6 375.1 255.2 367.7 255.2 375.1 233.6 382.5 233.6"/>
            <polygon class="uuid-6cc761d6-300d-4e43-9c59-a39a4b40988b" points="388.1 255.2 380.7 255.2 395.7 212 403 212 388.1 255.2"/>
          </g>
        </g>
        <g>
          <g>
            <line class="uuid-3967793d-9291-466d-a62f-6b33659af340" x1="204.2" y1="253.2" x2="201.4" y2="261.7"/>
            <line class="uuid-3967793d-9291-466d-a62f-6b33659af340" x1="221.9" y1="253.2" x2="224.7" y2="261.7"/>
          </g>
          <circle class="uuid-af2ab723-1d77-42b5-9a91-7a5234a600c5" cx="213.1" cy="241.9" r="17.6" transform="translate(-92.5 344.8) rotate(-67.2)"/>
          <circle class="uuid-e22ac912-d352-4d42-af82-1540e4a5c72f" cx="213.1" cy="241.9" r="15.1" transform="translate(-108.7 221.5) rotate(-45)"/>
          <path class="uuid-af2ab723-1d77-42b5-9a91-7a5234a600c5" d="M214.5,241.9c0,.8-.6,1.4-1.4,1.4s-1.4-.6-1.4-1.4.6-1.4,1.4-1.4,1.4.6,1.4,1.4Z"/>
          <path class="uuid-af2ab723-1d77-42b5-9a91-7a5234a600c5" d="M213.1,230.1h0c-.3,0-.5-.2-.5-.5v-1.5c0-.3.2-.5.5-.5h0c.3,0,.5.2.5.5v1.5c0,.3-.2.5-.5.5Z"/>
          <path class="uuid-af2ab723-1d77-42b5-9a91-7a5234a600c5" d="M224.8,241.9h0c0-.3.2-.5.5-.5h1.5c.3,0,.5.2.5.5h0c0,.3-.2.5-.5.5h-1.5c-.3,0-.5-.2-.5-.5Z"/>
          <path class="uuid-af2ab723-1d77-42b5-9a91-7a5234a600c5" d="M213.1,253.7h0c.3,0,.5.2.5.5v1.5c0,.3-.2.5-.5.5h0c-.3,0-.5-.2-.5-.5v-1.5c0-.3.2-.5.5-.5Z"/>
          <path class="uuid-af2ab723-1d77-42b5-9a91-7a5234a600c5" d="M201.3,241.9h0c0,.3-.2.5-.5.5h-1.5c-.3,0-.5-.2-.5-.5h0c0-.3.2-.5.5-.5h1.5c.3,0,.5.2.5.5Z"/>
          <polyline class="uuid-ff6637fa-47f5-47d3-96f7-d561d79b1012" points="206.4 232.3 213.1 241.9 208.9 246"/>
        </g>
        <g>
          <path class="uuid-9bd4ba75-8e36-4735-b300-47e9a614c71c" d="M443.3,186.5c.4-8.3-5-12.9-13.2-14.4,1.1,1.5,2.7,1.6,3.4,3.2,1,2.4-1.8,2.6-2.3.7-.5-1.7-1-2.7-1.7-3.4-.7-.6-1.6-.9-2.5-1-.5,0-1.3-.1-1.8-.1-9-.3-20.1,2.4-30.7,7.7,0,0,5.7,3.5,11.2,12.2,4.5,7.1,11.3,9.4,18.1,9.2,0,0,1-2.5,2.5-5,1.6-2.7,3.7-5.4,5.7-4.9,3.3.8-1.6,6.8-5.1,9.6,9-1.3,17.4-6.7,19.5-11.3,0,0-.7-.6-3-2.6ZM419.8,183c-.4.4-1.5.6-2.1.7-1.6.3-3,3.2-4.6,4.1-2.8,1.4-4.6.1-4-1.9,1.1-3.7,6.2-4.4,8.7-4.4,2.7,0,2.7.9,2.1,1.5Z"/>
          <path class="uuid-ff6637fa-47f5-47d3-96f7-d561d79b1012" d="M461.9,240.6s7.9-62.2-47.3-62.2"/>
          <path class="uuid-9bd4ba75-8e36-4735-b300-47e9a614c71c" d="M488.8,187c.2-6.6-1.3-12.3-1.3-12.3-8,0-21.2,5-27.2,12.2,1.4.6,2.8,1.5,3.5,2.8,1.9,3.7-1.3,6.1-1.8,3.1-.5-2.8-1.8-4-2.7-4.5-1.1,1.7-1.8,3.4-2,5.3-.9,9.4,7.2,9.5,7.2,9.5,0,0,7.6,8.4,18.3-.5,3.9-3.3,5.5-8.5,5.9-13.5-4.2.7-5.1,1.9-7.4,2.9-2.6,1.1-5.5.6-4.1-2.2,1.2-2.3,7.9-3.2,11.6-2.8ZM475.3,193.8c-.8,1.8-3.5,1.4-3.6-.2-.2-1.8,1-2.1,2-2.1,1.2,0,2.3.8,1.6,2.2Z"/>
          <path class="uuid-ff6637fa-47f5-47d3-96f7-d561d79b1012" d="M462.4,220.1s-1.3-28.4,18.5-41.6"/>
          <polygon class="uuid-6cc761d6-300d-4e43-9c59-a39a4b40988b" points="476.6 261.3 468.5 215.9 468.5 215.9 471.7 208.2 450.6 208.2 453.8 215.9 453.8 215.9 445.7 261.3 476.6 261.3"/>
        </g>
        <g>
          <g>
            <path class="uuid-af2ab723-1d77-42b5-9a91-7a5234a600c5" d="M121.9,149.6s-.9,14,5.6,25.3c6,10.5,17.3,15.6,17.3,15.6l-9.3-20.3.5-16.7-6-6.3-8,2.5Z"/>
            <path class="uuid-9bd4ba75-8e36-4735-b300-47e9a614c71c" d="M159.3,198.4c-.6-2.4-.2-5,1.3-7.1,2-3,4.1-7.9,2.7-14.7-1.2-5.9,2.2-8.5-1.1-13.7-1.3-2-5.1-2.2-7.3-5.9-4.1-6.9.6-11.2-5.9-18.2-3.1-3.3-14.5-7.5-22.8.6,0,0-4,3.1-4.2,9.4s8.1,9.7,10.1,12.8c2,3.1-1.1,9.5.3,13.1,1.4,3.6,5.5,3.3,7.2,10.4,1.1,4.3,7.5,6.9,12.4,8.3,3.1.9,5.5,3.4,6.3,6.6,6.7,28,8.5,54.1,7.9,107.3h1.4c.5-54.1-1.3-80.3-8.2-108.9Z"/>
          </g>
          <g>
            <path class="uuid-af2ab723-1d77-42b5-9a91-7a5234a600c5" d="M177.7,231.8s1.7-3.5,7-7.2c2.7-1.9,6.2-2.5,10-4.7,7.7-4.4,6.4-15.2,8.4-20s7.5-5.2,6.8-15.9c0,0-5.8,1.5-16.5,11.8-20.1,19.4-15.6,36-15.6,36Z"/>
            <path class="uuid-9bd4ba75-8e36-4735-b300-47e9a614c71c" d="M209.7,182.4c-1.8-7-4.7-14.9-10.2-13.3-5.5,1.7-9.6,5.2-14.9,9.2-5.3,4-3.8,10.3-5.3,14.7-2.8,8.4-10.7,11.6-9.7,19.7.6,4.6,3,10.9,4.7,14.9,1.1,2.7,1.5,5.7.9,8.5-3.5,18.2-3.8,32.6-5.1,79h0c0,.1,1.4.2,1.4.2h0c1.3-50.2,1.6-62.9,6-83.5,1.7-1.7,1-11.7,5.3-13.5,5.9-2.3,13.3-3.1,12.4-13.9-1.2-13.4,16.2-15.2,14.5-22.2Z"/>
          </g>
          <g>
            <path class="uuid-af2ab723-1d77-42b5-9a91-7a5234a600c5" d="M47.5,231.4s.9-8.4,9.4-11.6c3.6-1.4,8,.3,11.5.5,4.8.2,4.9-3.7,8.9-3.9,2.7-.1,6.1,2,8,1.2,3.2-1.4,5.7-3.1,8.8-3.1,5,0,15.9,4.5,20.6,15.5,0,0-10.1-4.4-25.2-2.7-15.1,1.7-42.1,4.1-42.1,4.1Z"/>
            <path class="uuid-9bd4ba75-8e36-4735-b300-47e9a614c71c" d="M114.1,229.1c-1.5-2.3-5.6-7.9-12-9.7-3.1-.9-5.8,1.1-10.4,1.8-2.4.4-5.4-1.5-8.9-.3-4.5,1.6-6.4,5.5-9,6.4-5.4,2.1-8-3.1-14-2.8-8.2.4-12.4,6.9-12.4,6.9,0,0,4.5,2.6,17.6,4.1,13.2,1.5,23.1-1.7,31.9-4,8.3-2.2,17.2-1.5,24.9,2.4,39.4,19.8,40.4,66.5,40.4,68.7h1.4c0-2.4-1.2-56.1-49.5-73.5Z"/>
          </g>
          <g>
            <path class="uuid-af2ab723-1d77-42b5-9a91-7a5234a600c5" d="M114.6,198.9s1.1-6.5,10.7-5.6c9.6.8,10.8,13.6,16.5,18.2,5.8,4.6,3.7,15.8,6,21,2.3,5.2,4.2,7.7,6.6,13.2,2.4,5.6-.6,16.8-2.2,20.7,0,0-22.1-29.7-22.3-30.7-.2-1-8.3-12.7-8.3-12.7l-4-5.4s-5.4-10.5-3.2-18.7Z"/>
            <path class="uuid-9bd4ba75-8e36-4735-b300-47e9a614c71c" d="M163.6,332.1c-1.4-32.6-7.3-55.2-10.9-66.5.6-2.1,1.4-7.4-3.8-12.8-6.6-6.8-1.5-21.1-8.2-26.9-6.7-5.8-17.7-8.8-20.8-11.9-6.3-6.2-5.3-15-5.3-15,0,0-5.7,19.2,5.8,36.5,5.5,8.2,16.5,18.2,24,24.5,4.7,3.9,8,9.2,9.5,15,3.3,12.5,7.1,31.8,8.2,57.1h1.4Z"/>
          </g>
          <path class="uuid-4363c72f-fca1-433a-a4b3-5f8b269a4498" d="M192.5,299.4c-.4,10.8-2.1,57.5-4.2,73.2-2.4,17.8-11.4,27.8-11.4,27.8h-26.4s-9-10-11.4-27.8c-2.1-15.7-3.8-62.3-4.2-73.2h57.5Z"/>
          <line class="uuid-05827295-fbeb-4ae6-a3a0-4c4707cec5bd" x1="140.2" y1="304.6" x2="187.9" y2="304.6"/>
          <polygon class="uuid-af2ab723-1d77-42b5-9a91-7a5234a600c5" points="187 369.4 187 400.4 165.6 400.4 165.6 389.2 161.8 389.2 161.8 400.4 140.3 400.4 140.3 369.4 136.5 369.4 136.5 445.8 140.3 445.8 140.3 403.7 161.8 403.7 161.8 445.8 165.6 445.8 165.6 403.7 187 403.7 187 445.8 190.8 445.8 190.8 369.4 187 369.4"/>
        </g>
      </g>
      <g>
        <g>
          <path class="uuid-622231ab-4b6b-46f3-9b98-fcee6c7fbb64" d="M302.9,375.9l2.9,44.1s19.5,6,30.1-2.9l-2.7-47.6"/>
          <path class="uuid-622231ab-4b6b-46f3-9b98-fcee6c7fbb64" d="M219.1,362.6l-21.4,38.6s13.2,15.6,26.9,13.8l23.5-41.5"/>
          <path class="uuid-d95a9c60-49f1-49f0-8a12-fd0c4e793d60" d="M321.4,232.5l-60.4-.5s-12.8,7.9-14.9,32.2c-1.8,20.3-4.5,43-5.3,55.7l-36.3,65.8c9.8,10.1,28.7,16.9,41.2,18.2,0,0,29.9-65.9,32.5-72,2.6-6.1,10.8-42.6,10.8-42.6l3.2,42.3s-1,7.7-.9,9.5c.6,7.5,2.9,65.9,2.9,65.9,12.5,3.8,39.1,1.1,45.8-2.6-.4-3.1-12.1-126.2-15-155.8-1.1-11.5-3-14.7-3.6-16.1Z"/>
          <g>
            <path class="uuid-d95a9c60-49f1-49f0-8a12-fd0c4e793d60" d="M250.3,433.3c-4-3.6-19.4-8-19.4-8l-6.4-10.2-26.9-13.8,4.3-7.7c-4.8-.5-9.1-.9-9.1-.9.9,3.9.4,9.7.3,10.8-10.9,6.9-14.2,17.6-14.2,17.6l32.8,24.7h36.9s5.7-8.9,1.7-12.5Z"/>
            <path class="uuid-af2ab723-1d77-42b5-9a91-7a5234a600c5" d="M251,440.9c1.3,1.5.3,5,.3,5h-39.6l-34-25.6s3.2-9.4,8.5-10.9l6.4,14.9,22.2,16.7h36.2Z"/>
            <path class="uuid-48056b56-7c07-4fe1-9a3c-a1069cd226b7" d="M228.8,418s-11.1.7-13.8,12.3l6.7,3s1.5-7.6,9.2-8l-2.1-7.3Z"/>
          </g>
          <g>
            <path class="uuid-d95a9c60-49f1-49f0-8a12-fd0c4e793d60" d="M374,435.3c-1.7-6.5-15.1-7.5-24-8.7-8.3-6.1-14.2-10.4-14.2-10.4l-30,3.8-.4-6.3-8.8,4c2.5,2.4,4.7,5,6.2,7.1-1.9,4-3.9,10.7-3.9,21.1h72.5s3.6-5.6,2.7-10.5Z"/>
            <path class="uuid-af2ab723-1d77-42b5-9a91-7a5234a600c5" d="M373.6,440.9c.9.8.6,5,.6,5h-76.2c-.4-2.4-.6-9.3,1.8-11.5,6,.7,10.3,3.3,14.1,6.6h59.7Z"/>
            <path class="uuid-48056b56-7c07-4fe1-9a3c-a1069cd226b7" d="M350.1,426.6l-4.6-5.7s-9.5,3.5-8.7,16l7.8-1.7s.7-4.9,5.5-8.6Z"/>
          </g>
          <polygon class="uuid-af2ab723-1d77-42b5-9a91-7a5234a600c5" points="288.8 289.3 293 271.3 300.5 267.5 294.7 272.8 290.5 310.9 288.8 289.3"/>
          <path class="uuid-076b223f-2ff5-496f-aaca-1ec3ae8f6d41" d="M271,232.6s-5.6,6.9-7.9,14c-2.2,6.8-10.3,69.7-10.3,69.7,0,0-2.9.3-3.3,2.1-.3,1.8,2.4,2,2.4,2,0,0-2.6,1.4-3.1,3.8-.5,2.7.5,3.9.5,3.9l-32.2,58.6"/>
          <path class="uuid-076b223f-2ff5-496f-aaca-1ec3ae8f6d41" d="M296.7,270.3l6.2,59.2s-1.4,2.7-1.7,7.6c-.3,4.9,3.5,64.6,3.5,64.6"/>
          <path class="uuid-076b223f-2ff5-496f-aaca-1ec3ae8f6d41" d="M208.8,381.2s15,12.4,37.1,16.1"/>
          <path class="uuid-076b223f-2ff5-496f-aaca-1ec3ae8f6d41" d="M296.6,401.1s23.5,3.3,40.9-3.3"/>
          <path class="uuid-076b223f-2ff5-496f-aaca-1ec3ae8f6d41" d="M261,257.3s11.6-1.3,15.8-5.4,8-17,8-17"/>
          <path class="uuid-622231ab-4b6b-46f3-9b98-fcee6c7fbb64" d="M383.9,66.4s-2.3-9.3-3.6-11.2c-.6-.9-1.9-.9-2.4-.8-.7-1.8-.9-2.3-1.3-3-.6-1.1-2.7-1.3-3.4-.4-.4-.9-.5-1.2-.8-1.6-1.3-1.7-4.6-1.4-4.4.6,0,.5.3,1.1.8,2.5-1.2-1.6-4.6-1-4.2.9.8,3.8,4.6,15.7,4.6,15.7,0,0-.7-1.6-2.1-3.8-1.9-2.9-4-3.6-5.7-3-2.4.9,1.9,6.2,2.1,10.4.5,7.9,1.9,10.7,1.8,10.9-7,10.6-19.8,30.4-29.4,45.3l-24.5,7.9,1.9,28.4s36-9.7,42.5-21.5c14.5-26.3,24.7-56.8,24.7-56.8,1.8-1.9,5-4.9,5.4-9.8.5-6.2-2.2-10.7-2.2-10.7Z"/>
          <path class="uuid-57256959-0777-40fd-b6af-642306a111a9" d="M371.8,70.3s7.7,4.8,6.5,12.4"/>
          <path class="uuid-48056b56-7c07-4fe1-9a3c-a1069cd226b7" d="M282.1,141.4l49.7-11.6c5.5,5.1,9,20.6,9.2,33.4l-33.6,9.6-25.3-31.4"/>
          <polygon class="uuid-bf82f858-1692-4479-aa0b-b2955fd0c5f2" points="326.3 167.4 307.9 172.7 310 156 326.3 167.4"/>
          <path class="uuid-48056b56-7c07-4fe1-9a3c-a1069cd226b7" d="M321.7,183l2.2,53.6s-17.8,8.8-64.7-4.7l8.2-20.9-11.1-33,8-30.3,17.7-6.2,20.8,3.7s1.5.6,3.6,2.1c5.9,4.1,11.8,22.8,14.5,32,.4,1.2.6,2.5.6,3.8Z"/>
          <polygon class="uuid-bf82f858-1692-4479-aa0b-b2955fd0c5f2" points="274.5 182.5 267.5 211 257.1 180.1 274.5 182.5"/>
          <g>
            <path class="uuid-d95a9c60-49f1-49f0-8a12-fd0c4e793d60" d="M319.4,190.9h-10.5v22.3s0,3.3,10.5,3.3,10.5-3.3,10.5-3.3v-22.3h-10.5Z"/>
            <path class="uuid-f60e3c76-c9d1-4b5c-a71e-492323631048" d="M310.2,194.6s-3.8-3.4-7.4.6c-3.7,4.1-3.4,18.4,8.2,15.4"/>
            <path class="uuid-e6a0e0b0-cca7-4cf6-a2d2-f56fb467da86" d="M323.9,190.4c-.7,2.3-3,17.3,12.3,18"/>
            <path class="uuid-bf82f858-1692-4479-aa0b-b2955fd0c5f2" d="M343.6,207l-.7,5.1c0,.4-.4.6-.8.6l-5.8-.8c-.2,0-.3-.1-.5-.3l-2.2-2.9c-.2-.3-.2-.7.1-1l2.9-2.2c.1-.1.3-.2.5-.1l5.8.8c.4,0,.6.4.6.8Z"/>
          </g>
          <path class="uuid-622231ab-4b6b-46f3-9b98-fcee6c7fbb64" d="M311.6,211.4c-1.8-.5-3.7-.9-4.8-1.1,1.7-2.4.4-3.9.4-3.9,1.8-2.5.2-4.2.2-4.2,1.5-2,.4-4-.4-4.3-1.6-.6-6.8-.1-6.8-.1,0,0,2.7-.8,4.5-3,.9-1.2,1.2-4.9-2.5-3.5-2.8,1-8.5,1.5-10.5,2.8-1.3.9-3.2,3.3-4.3,4.9l-31.6,1.8,9.6-12-24.4-11.3s-10.9,17.1-13.2,23.1c-6.6,17.2,7.4,21.1,21.4,19.3,15.6-2,35-6.2,42.1-7.8,1.5.3,6.7,1.4,10.3,1.6h0s6.1,1.1,9.3,1.4c2.9.3,2.5-3.1.8-3.6Z"/>
          <path class="uuid-48056b56-7c07-4fe1-9a3c-a1069cd226b7" d="M278.6,176.2c-3.8,5.8-15,23.4-15,23.4-10.8-1.1-27-9.5-31.2-14,0,0,8.8-14.3,16.1-24.7s15.9-13.3,15.9-13.3c0,0,10.6-1.1,15.9,7.1,4.3,6.7,3.4,13.6-1.7,21.4Z"/>
          <g>
            <path class="uuid-bf82f858-1692-4479-aa0b-b2955fd0c5f2" d="M256.5,85.1c-9.4,2.7-8.3,19.6,8.2,17-1.6.7-3.2,1.9-2.6,3.5,1,3.1,8.5-1.3,8.5-1.3l2-10.8c-3-5.3-8.5-10.6-16.1-8.4Z"/>
            <path class="uuid-48056b56-7c07-4fe1-9a3c-a1069cd226b7" d="M274.3,91.4s-4.5-1.4-6.4,4.1c-2.4,6.8,0,11.2,4.3,11"/>
            <path class="uuid-622231ab-4b6b-46f3-9b98-fcee6c7fbb64" d="M309.8,130.8c-2.1,1.6-6.4,1.6-9.2,1l.5,13.3c-11.8,2.3-20.2-.7-23.3-2.1l5.3-17.9c-2.9-2.6-5.3-6.7-6-13-.9-9.1-.2-23.4,12.1-26.2,9.1-2,20.3,2,22.9,8.8,3.5,8.9,6.4,29.2-2.3,36Z"/>
            <path class="uuid-bf82f858-1692-4479-aa0b-b2955fd0c5f2" d="M282.2,127.9s2-6.5,3.5-11.8c2.1-2.7,6.7-2.6,9-6.4,3.4-5.8,13.3-11.2,13-17.2,0,0,2.9.8,6,7.4,2.7-3.3,3.6-17.6-7.2-15.4-5.7-4.3-26.7-9.1-34.9,8.8-4.1,8.9-1.5,18.7,2.8,24-3.1,9.5,5.3,11.7,7.8,10.5Z"/>
            <ellipse class="uuid-44df7f38-5502-46b9-a24b-ab9818d9f04b" cx="302.3" cy="109.6" rx="4.7" ry="5.4"/>
            <ellipse class="uuid-7201074d-a59c-435b-97ba-9f820cafdc0f" cx="313.2" cy="109.6" rx="3.5" ry="5.4"/>
            <line class="uuid-44df7f38-5502-46b9-a24b-ab9818d9f04b" x1="307" y1="109.6" x2="309.7" y2="109.6"/>
            <line class="uuid-44df7f38-5502-46b9-a24b-ab9818d9f04b" x1="297.6" y1="109.6" x2="291.9" y2="108.2"/>
            <path class="uuid-622231ab-4b6b-46f3-9b98-fcee6c7fbb64" d="M294.5,110.5c1.3,3.6,0,7.4-2.8,8.4-2.8,1-6.2-1.1-7.5-4.8-1.3-3.6,0-7.4,2.8-8.4,2.8-1,6.2,1.1,7.5,4.8Z"/>
          </g>
          <path class="uuid-bf82f858-1692-4479-aa0b-b2955fd0c5f2" d="M277,156.2c0,0-.2,0-.3-.1h.3Z"/>
          <path class="uuid-076b223f-2ff5-496f-aaca-1ec3ae8f6d41" d="M255,200.8s-11.4.8-14.5,1.1"/>
          <path class="uuid-076b223f-2ff5-496f-aaca-1ec3ae8f6d41" d="M276.4,145.3s9.6,6.8,25,2.9"/>
          <path class="uuid-c77b7abd-caee-4cf6-a116-a2cfa60e07d2" d="M300.5,131.8s-8-2.4-11.7-10.1c0,0-.4,13.2,11.9,16.7l-.3-6.6Z"/>
          <g>
            <line class="uuid-57256959-0777-40fd-b6af-642306a111a9" x1="369.3" y1="53" x2="373.1" y2="65.9"/>
            <line class="uuid-57256959-0777-40fd-b6af-642306a111a9" x1="373.5" y1="51.9" x2="377" y2="65.2"/>
            <line class="uuid-57256959-0777-40fd-b6af-642306a111a9" x1="378" y1="55" x2="380.4" y2="64.5"/>
          </g>
        </g>
        <g>
          <path class="uuid-bb38b962-0b35-43fc-9edf-536ceb23a100" d="M245,130.8l-9.8-18c3.1-4.6,4.7-10.3,4.2-16.3-1-12.1-10.9-21.9-23-22.9-15.5-1.2-28.4,11.6-27.2,27.2,1,12.3,10.9,22.2,23.2,23.1,5.4.4,10.4-.9,14.7-3.4l16.4,11.7c.9.6,2-.4,1.5-1.3Z"/>
          <g>
            <circle class="uuid-af2ab723-1d77-42b5-9a91-7a5234a600c5" cx="201.8" cy="98.7" r="3.3"/>
            <circle class="uuid-af2ab723-1d77-42b5-9a91-7a5234a600c5" cx="214.1" cy="98.7" r="3.3"/>
            <circle class="uuid-af2ab723-1d77-42b5-9a91-7a5234a600c5" cx="226.4" cy="98.7" r="3.3"/>
          </g>
        </g>
      </g>
      <g>
        <g>
          <g>
            <path class="uuid-af2ab723-1d77-42b5-9a91-7a5234a600c5" d="M423.9,289.8c0,1.2-1,2.2-2.2,2.2s-2.2-1-2.2-2.2,1-2.2,2.2-2.2,2.2,1,2.2,2.2Z"/>
            <path class="uuid-af2ab723-1d77-42b5-9a91-7a5234a600c5" d="M433.9,289.8c0,1.2-1,2.2-2.2,2.2s-2.2-1-2.2-2.2,1-2.2,2.2-2.2,2.2,1,2.2,2.2Z"/>
            <path class="uuid-af2ab723-1d77-42b5-9a91-7a5234a600c5" d="M443.8,289.8c0,1.2-1,2.2-2.2,2.2s-2.2-1-2.2-2.2,1-2.2,2.2-2.2,2.2,1,2.2,2.2Z"/>
            <path class="uuid-af2ab723-1d77-42b5-9a91-7a5234a600c5" d="M453.8,289.8c0,1.2-1,2.2-2.2,2.2s-2.2-1-2.2-2.2,1-2.2,2.2-2.2,2.2,1,2.2,2.2Z"/>
            <path class="uuid-af2ab723-1d77-42b5-9a91-7a5234a600c5" d="M463.7,289.8c0,1.2-1,2.2-2.2,2.2s-2.2-1-2.2-2.2,1-2.2,2.2-2.2,2.2,1,2.2,2.2Z"/>
          </g>
          <g>
            <path class="uuid-af2ab723-1d77-42b5-9a91-7a5234a600c5" d="M621.1,74.1c0,1.2-1,2.2-2.2,2.2s-2.2-1-2.2-2.2,1-2.2,2.2-2.2,2.2,1,2.2,2.2Z"/>
            <path class="uuid-af2ab723-1d77-42b5-9a91-7a5234a600c5" d="M631.1,74.1c0,1.2-1,2.2-2.2,2.2s-2.2-1-2.2-2.2,1-2.2,2.2-2.2,2.2,1,2.2,2.2Z"/>
            <path class="uuid-af2ab723-1d77-42b5-9a91-7a5234a600c5" d="M641,74.1c0,1.2-1,2.2-2.2,2.2s-2.2-1-2.2-2.2,1-2.2,2.2-2.2,2.2,1,2.2,2.2Z"/>
            <path class="uuid-af2ab723-1d77-42b5-9a91-7a5234a600c5" d="M651,74.1c0,1.2-1,2.2-2.2,2.2s-2.2-1-2.2-2.2,1-2.2,2.2-2.2,2.2,1,2.2,2.2Z"/>
          </g>
          <g>
            <path class="uuid-af2ab723-1d77-42b5-9a91-7a5234a600c5" d="M118.8,124.5c0,2.2-1.8,4-4,4s-4-1.8-4-4,1.8-4,4-4,4,1.8,4,4Z"/>
            <path class="uuid-af2ab723-1d77-42b5-9a91-7a5234a600c5" d="M136.9,124.5c0,2.2-1.8,4-4,4s-4-1.8-4-4,1.8-4,4-4,4,1.8,4,4Z"/>
            <path class="uuid-af2ab723-1d77-42b5-9a91-7a5234a600c5" d="M155,124.5c0,2.2-1.8,4-4,4s-4-1.8-4-4,1.8-4,4-4,4,1.8,4,4Z"/>
          </g>
          <g>
            <path class="uuid-af2ab723-1d77-42b5-9a91-7a5234a600c5" d="M110.1,285.3c0,1.2-1,2.3-2.3,2.3s-2.3-1-2.3-2.3,1-2.3,2.3-2.3,2.3,1,2.3,2.3Z"/>
            <path class="uuid-af2ab723-1d77-42b5-9a91-7a5234a600c5" d="M120.4,285.3c0,1.2-1,2.3-2.3,2.3s-2.3-1-2.3-2.3,1-2.3,2.3-2.3,2.3,1,2.3,2.3Z"/>
            <path class="uuid-af2ab723-1d77-42b5-9a91-7a5234a600c5" d="M130.8,285.3c0,1.2-1,2.3-2.3,2.3s-2.3-1-2.3-2.3,1-2.3,2.3-2.3,2.3,1,2.3,2.3Z"/>
          </g>
          <g>
            <path class="uuid-af2ab723-1d77-42b5-9a91-7a5234a600c5" d="M358.2,358.7c0,1.2-1,2.3-2.3,2.3s-2.3-1-2.3-2.3,1-2.3,2.3-2.3,2.3,1,2.3,2.3Z"/>
            <path class="uuid-af2ab723-1d77-42b5-9a91-7a5234a600c5" d="M368.6,358.7c0,1.2-1,2.3-2.3,2.3s-2.3-1-2.3-2.3,1-2.3,2.3-2.3,2.3,1,2.3,2.3Z"/>
            <path class="uuid-af2ab723-1d77-42b5-9a91-7a5234a600c5" d="M378.9,358.7c0,1.2-1,2.3-2.3,2.3s-2.3-1-2.3-2.3,1-2.3,2.3-2.3,2.3,1,2.3,2.3Z"/>
          </g>
          <g>
            <circle class="uuid-af2ab723-1d77-42b5-9a91-7a5234a600c5" cx="658.2" cy="424.3" r="2.3"/>
            <path class="uuid-af2ab723-1d77-42b5-9a91-7a5234a600c5" d="M670.8,424.3c0,1.2-1,2.3-2.3,2.3s-2.3-1-2.3-2.3,1-2.3,2.3-2.3,2.3,1,2.3,2.3Z"/>
            <circle class="uuid-af2ab723-1d77-42b5-9a91-7a5234a600c5" cx="678.9" cy="424.3" r="2.3"/>
          </g>
          <g>
            <path class="uuid-af2ab723-1d77-42b5-9a91-7a5234a600c5" d="M628.3,251.7c0,1.7-1.4,3.1-3.1,3.1s-3.1-1.4-3.1-3.1,1.4-3.1,3.1-3.1,3.1,1.4,3.1,3.1Z"/>
            <path class="uuid-af2ab723-1d77-42b5-9a91-7a5234a600c5" d="M642.6,251.7c0,1.7-1.4,3.1-3.1,3.1s-3.1-1.4-3.1-3.1,1.4-3.1,3.1-3.1,3.1,1.4,3.1,3.1Z"/>
            <path class="uuid-af2ab723-1d77-42b5-9a91-7a5234a600c5" d="M656.9,251.7c0,1.7-1.4,3.1-3.1,3.1s-3.1-1.4-3.1-3.1,1.4-3.1,3.1-3.1,3.1,1.4,3.1,3.1Z"/>
          </g>
        </g>
        <g>
          <path class="uuid-df051dd0-9679-4f30-8e34-a536e9cfeec0" d="M75.3,357.1c0-3,2.4-5.4,5.4-5.4s5.4,2.4,5.4,5.4-2.4,5.4-5.4,5.4-5.4-2.4-5.4-5.4Z"/>
          <circle class="uuid-df051dd0-9679-4f30-8e34-a536e9cfeec0" cx="617.9" cy="222.4" r="2.9"/>
          <path class="uuid-df051dd0-9679-4f30-8e34-a536e9cfeec0" d="M518.1,53c0-2.3,1.9-4.1,4.1-4.1s4.1,1.9,4.1,4.1-1.9,4.1-4.1,4.1-4.1-1.9-4.1-4.1Z"/>
          <path class="uuid-df051dd0-9679-4f30-8e34-a536e9cfeec0" d="M98.4,198.3c0-2.5,2.1-4.6,4.6-4.6s4.6,2.1,4.6,4.6-2.1,4.6-4.6,4.6-4.6-2.1-4.6-4.6Z"/>
          <path class="uuid-df051dd0-9679-4f30-8e34-a536e9cfeec0" d="M676.7,371.5c0-1,.8-1.8,1.8-1.8s1.8.8,1.8,1.8-.8,1.8-1.8,1.8-1.8-.8-1.8-1.8Z"/>
          <path class="uuid-df051dd0-9679-4f30-8e34-a536e9cfeec0" d="M668.6,140.4c0-2.6,2.1-4.6,4.6-4.6s4.6,2.1,4.6,4.6-2.1,4.6-4.6,4.6-4.6-2.1-4.6-4.6Z"/>
          <path class="uuid-df051dd0-9679-4f30-8e34-a536e9cfeec0" d="M94.8,345.3c0-1.4,1.2-2.6,2.6-2.6s2.6,1.2,2.6,2.6-1.2,2.6-2.6,2.6-2.6-1.2-2.6-2.6Z"/>
          <circle class="uuid-df051dd0-9679-4f30-8e34-a536e9cfeec0" cx="627.6" cy="210" r="6"/>
          <path class="uuid-df051dd0-9679-4f30-8e34-a536e9cfeec0" d="M124.7,70.3c0-3.3,2.7-6,6-6s6,2.7,6,6-2.7,6-6,6-6-2.7-6-6Z"/>
          <path class="uuid-df051dd0-9679-4f30-8e34-a536e9cfeec0" d="M115.1,62.1c0-1.8,1.4-3.2,3.2-3.2s3.2,1.4,3.2,3.2-1.4,3.2-3.2,3.2-3.2-1.4-3.2-3.2Z"/>
        </g>
      </g>
      <g>
        <line class="uuid-490fc740-f193-4052-9dcb-29a2693d13b6" x1="75.9" y1="445.8" x2="702.5" y2="445.8"/>
        <path class="uuid-6de68f78-e734-4595-b651-8510b8514ee0" d="M281,458.6s-6.5-24.9-30.1-36.7c0,0,17.6.8,32.9,18.4,0,0-7.7-22.9-19-37,0,0,16.1,7.7,28.1,27.7,0,0-3.8-16.7-7.5-25.8,0,0,18.4,11.7,23.4,35.6,0,0,5.7-12.2,15.1-17.3,0,0-7.3,18-6.1,35.3"/>
        <line class="uuid-490fc740-f193-4052-9dcb-29a2693d13b6" x1="232.4" y1="458.6" x2="546" y2="458.6"/>
      </g>
    </g>
  </g>
</svg>